<?xml version="1.0"?>
<svg xmlns="http://www.w3.org/2000/svg" xmlns:xlink="http://www.w3.org/1999/xlink" width="500" zoomAndPan="magnify" viewBox="0 0 375 374.999991" height="500" preserveAspectRatio="xMidYMid meet" version="1.0" style="background-color:transparent;">
  <defs>
    <g/>
    <clipPath id="e334b674b7">
      <path d="M 138.457031 111.835938 L 236.707031 111.835938 L 236.707031 197.335938 L 138.457031 197.335938 Z M 138.457031 111.835938 " clip-rule="nonzero"/>
    </clipPath>
    <clipPath id="b8140f922e">
      <rect x="0" width="102" y="0" height="44"/>
    </clipPath>
  </defs>
  <rect x="-37.5" width="450" fill="none" y="-37.499999" height="449.999989" fill-opacity="1"/>
  <rect x="-37.5" width="450" fill="none" y="-37.499999" height="449.999989" fill-opacity="1"/>
  <g clip-path="url(#e334b674b7)">
    <path fill="#00adef" d="M 176.925781 170.105469 L 179.605469 170.105469 C 180.742188 170.105469 181.667969 171.03125 181.667969 172.167969 C 181.667969 173.300781 180.742188 174.230469 179.605469 174.230469 L 176.925781 174.230469 C 175.789062 174.230469 174.863281 173.300781 174.863281 172.167969 C 174.863281 171.03125 175.789062 170.105469 176.925781 170.105469 Z M 171.460938 128.285156 C 172.386719 128.078125 173.058594 127.253906 173.058594 126.273438 C 173.058594 125.242188 172.285156 124.367188 171.304688 124.210938 L 162.640625 124.210938 C 161.507812 124.210938 160.578125 123.285156 160.578125 122.148438 C 160.578125 121.015625 161.507812 120.085938 162.640625 120.085938 L 175.480469 120.085938 C 176.617188 120.085938 177.542969 119.160156 177.542969 118.023438 C 177.542969 116.992188 176.769531 116.117188 175.789062 115.960938 L 165.167969 115.960938 C 164.035156 115.960938 163.105469 115.035156 163.105469 113.898438 C 163.105469 112.765625 164.035156 111.835938 165.167969 111.835938 L 232.769531 111.835938 C 234.832031 111.835938 236.480469 113.488281 236.480469 115.550781 L 236.480469 125.5 C 236.480469 127.5625 234.832031 129.214844 232.769531 129.214844 L 214.101562 129.214844 C 212.039062 129.214844 210.390625 130.863281 210.390625 132.925781 L 210.390625 193.824219 C 210.390625 195.886719 208.738281 197.535156 206.675781 197.535156 L 189.507812 197.535156 C 189.457031 197.382812 189.457031 197.175781 189.457031 197.019531 C 189.457031 195.886719 190.382812 194.957031 191.519531 194.957031 L 194.613281 194.957031 C 195.746094 194.957031 196.675781 194.03125 196.675781 192.894531 C 196.675781 191.761719 195.746094 190.832031 194.613281 190.832031 L 188.21875 190.832031 C 187.082031 190.832031 186.15625 189.90625 186.15625 188.769531 C 186.15625 187.636719 187.082031 186.707031 188.21875 186.707031 L 182.90625 186.707031 L 191.777344 186.707031 C 192.910156 186.707031 193.839844 185.78125 193.839844 184.644531 C 193.839844 183.511719 192.910156 182.582031 191.777344 182.582031 L 187.703125 182.582031 C 186.566406 182.582031 185.640625 181.652344 185.640625 180.519531 C 185.640625 179.386719 186.566406 178.457031 187.703125 178.457031 L 196.363281 178.457031 C 197.5 178.457031 198.425781 177.527344 198.425781 176.394531 C 198.425781 175.261719 197.5 174.332031 196.363281 174.332031 L 185.125 174.332031 C 183.988281 174.332031 183.0625 173.402344 183.0625 172.269531 C 183.0625 171.136719 183.988281 170.207031 185.125 170.207031 L 192.910156 170.207031 C 194.042969 170.207031 194.972656 169.277344 194.972656 168.144531 C 194.972656 167.011719 194.042969 166.082031 192.910156 166.082031 L 182.496094 166.082031 C 181.359375 166.082031 180.429688 165.152344 180.429688 164.019531 C 180.429688 162.886719 181.359375 161.957031 182.496094 161.957031 L 198.839844 161.957031 C 199.972656 161.957031 200.902344 161.027344 200.902344 159.894531 C 200.902344 158.761719 199.972656 157.832031 198.839844 157.832031 L 189.042969 157.832031 C 187.910156 157.832031 186.980469 156.902344 186.980469 155.769531 C 186.980469 154.632812 187.910156 153.707031 189.042969 153.707031 L 194.355469 153.707031 C 195.488281 153.707031 196.417969 152.777344 196.417969 151.644531 C 196.417969 150.507812 195.488281 149.582031 194.355469 149.582031 L 186.464844 149.582031 C 185.332031 149.582031 184.402344 148.652344 184.402344 147.519531 C 184.402344 146.382812 185.332031 145.457031 186.464844 145.457031 L 199.304688 145.457031 C 200.4375 145.457031 201.367188 144.527344 201.367188 143.394531 C 201.367188 142.257812 200.4375 141.332031 199.304688 141.332031 L 177.699219 141.332031 C 176.5625 141.332031 175.636719 140.402344 175.636719 139.269531 C 175.636719 138.132812 176.5625 137.207031 177.699219 137.207031 L 192.652344 137.207031 C 193.785156 137.207031 194.714844 136.277344 194.714844 135.144531 C 194.714844 134.007812 193.785156 133.082031 192.652344 133.082031 C 183.628906 133.082031 174.65625 133.132812 165.632812 133.132812 C 164.5 133.132812 163.570312 132.203125 163.570312 131.070312 C 163.570312 129.9375 164.5 129.007812 165.632812 129.007812 L 171.460938 129.007812 Z M 174.140625 153.242188 L 180.070312 153.242188 C 181.203125 153.242188 182.132812 154.171875 182.132812 155.304688 C 182.132812 156.441406 181.203125 157.367188 180.070312 157.367188 L 155.9375 157.367188 C 154.804688 157.367188 153.875 156.441406 153.875 155.304688 C 153.875 154.171875 154.804688 153.242188 155.9375 153.242188 Z M 140.574219 120.035156 L 143.253906 120.035156 C 144.386719 120.035156 145.316406 120.964844 145.316406 122.097656 C 145.316406 123.230469 144.386719 124.160156 143.253906 124.160156 L 140.574219 124.160156 C 139.4375 124.160156 138.511719 123.230469 138.511719 122.097656 C 138.511719 120.964844 139.4375 120.035156 140.574219 120.035156 Z M 148.875 120.035156 L 156.765625 120.035156 C 157.898438 120.035156 158.828125 120.964844 158.828125 122.097656 C 158.828125 123.230469 157.898438 124.160156 156.765625 124.160156 L 148.875 124.160156 C 147.738281 124.160156 146.8125 123.230469 146.8125 122.097656 C 146.761719 120.964844 147.738281 120.035156 148.875 120.035156 Z M 179.089844 186.554688 L 181.464844 186.554688 C 182.597656 186.554688 183.527344 187.480469 183.527344 188.617188 C 183.527344 189.75 182.597656 190.679688 181.464844 190.679688 L 179.089844 190.679688 C 177.957031 190.679688 177.027344 189.75 177.027344 188.617188 C 177.027344 187.480469 177.957031 186.554688 179.089844 186.554688 Z M 170.6875 161.542969 L 175.789062 161.542969 C 176.925781 161.542969 177.851562 162.472656 177.851562 163.605469 C 177.851562 164.742188 176.925781 165.667969 175.789062 165.667969 L 170.6875 165.667969 C 169.550781 165.667969 168.625 164.742188 168.625 163.605469 C 168.625 162.472656 169.550781 161.542969 170.6875 161.542969 Z M 155.421875 128.285156 L 157.28125 128.285156 C 158.414062 128.285156 159.34375 129.214844 159.34375 130.347656 C 159.34375 131.484375 158.414062 132.410156 157.28125 132.410156 L 155.421875 132.410156 C 154.289062 132.410156 153.359375 131.484375 153.359375 130.347656 C 153.359375 129.214844 154.289062 128.285156 155.421875 128.285156 Z M 170.171875 178.199219 L 179.039062 178.199219 C 180.171875 178.199219 181.101562 179.128906 181.101562 180.261719 C 181.101562 181.394531 180.171875 182.324219 179.039062 182.324219 L 170.171875 182.324219 C 169.035156 182.324219 168.109375 181.394531 168.109375 180.261719 C 168.109375 179.179688 169.035156 178.199219 170.171875 178.199219 Z M 162.125 136.585938 L 170.171875 136.585938 C 171.304688 136.585938 172.234375 137.515625 172.234375 138.648438 C 172.234375 139.785156 171.304688 140.710938 170.171875 140.710938 L 162.125 140.710938 C 160.992188 140.710938 160.0625 139.785156 160.0625 138.648438 C 160.0625 137.515625 160.992188 136.585938 162.125 136.585938 Z M 162.125 136.585938 " fill-opacity="1" fill-rule="evenodd"/>
  </g>
  <g transform="matrix(1, 0, 0, 1, 147, 193)">
    <g clip-path="url(#b8140f922e)">
      <g fill="#000000" fill-opacity="1">
        <g transform="translate(0.461363, 32.291605)">
          <g>
            <path d="M 17.390625 -21.53125 L 17.390625 -17.328125 L 11.6875 -17.328125 L 11.6875 0 L 6.4375 0 L 6.4375 -17.328125 L 0.734375 -17.328125 L 0.734375 -21.53125 Z M 17.390625 -21.53125 "/>
          </g>
        </g>
      </g>
      <g fill="#000000" fill-opacity="1">
        <g transform="translate(20.266974, 32.291605)">
          <g>
            <path d="M 7.140625 -21.53125 L 7.140625 0 L 1.90625 0 L 1.90625 -21.53125 Z M 7.140625 -21.53125 "/>
          </g>
        </g>
      </g>
      <g fill="#000000" fill-opacity="1">
        <g transform="translate(30.997883, 32.291605)">
          <g>
            <path d="M 22.109375 -21.53125 L 14.484375 0 L 7.90625 0 L 0.28125 -21.53125 L 5.859375 -21.53125 L 11.1875 -5.28125 L 16.5625 -21.53125 Z M 22.109375 -21.53125 "/>
          </g>
        </g>
      </g>
      <g fill="#000000" fill-opacity="1">
        <g transform="translate(55.064926, 32.291605)">
          <g>
            <path d="M 12.875 0 L 8.40625 -8.125 L 7.140625 -8.125 L 7.140625 0 L 1.90625 0 L 1.90625 -21.53125 L 10.703125 -21.53125 C 12.398438 -21.53125 13.847656 -21.234375 15.046875 -20.640625 C 16.242188 -20.046875 17.140625 -19.234375 17.734375 -18.203125 C 18.328125 -17.171875 18.625 -16.019531 18.625 -14.75 C 18.625 -13.320312 18.21875 -12.046875 17.40625 -10.921875 C 16.59375 -9.796875 15.398438 -9 13.828125 -8.53125 L 18.796875 0 Z M 7.140625 -11.84375 L 10.390625 -11.84375 C 11.359375 -11.84375 12.082031 -12.078125 12.5625 -12.546875 C 13.039062 -13.015625 13.28125 -13.675781 13.28125 -14.53125 C 13.28125 -15.351562 13.039062 -16 12.5625 -16.46875 C 12.082031 -16.9375 11.359375 -17.171875 10.390625 -17.171875 L 7.140625 -17.171875 Z M 7.140625 -11.84375 "/>
          </g>
        </g>
      </g>
      <g fill="#000000" fill-opacity="1">
        <g transform="translate(76.740663, 32.291605)">
          <g>
            <path d="M 15.3125 -3.796875 L 7.265625 -3.796875 L 5.984375 0 L 0.484375 0 L 8.28125 -21.53125 L 14.359375 -21.53125 L 22.140625 0 L 16.59375 0 Z M 13.953125 -7.859375 L 11.28125 -15.734375 L 8.65625 -7.859375 Z M 13.953125 -7.859375 "/>
          </g>
        </g>
      </g>
    </g>
  </g>
</svg>
